<?xml version="1.0" encoding="UTF-8"?>
<!DOCTYPE svg PUBLIC "-//W3C//DTD SVG 1.1//EN" "http://www.w3.org/Graphics/SVG/1.1/DTD/svg11.dtd">
<svg xmlns="http://www.w3.org/2000/svg" version="1.1" width="200px" height="200px" style="shape-rendering:geometricPrecision; text-rendering:geometricPrecision; image-rendering:optimizeQuality; fill-rule:evenodd; clip-rule:evenodd" xmlns:xlink="http://www.w3.org/1999/xlink">
<g><path style="opacity:0.754" fill="#372b61" d="M 152.5,33.5 C 153.557,31.0587 154.89,28.7254 156.5,26.5C 156.333,26.1667 156.167,25.8333 156,25.5C 154.961,26.7101 153.794,27.7101 152.5,28.5C 156.502,22.5299 161.002,16.8632 166,11.5C 166.837,9.99256 168.004,9.49256 169.5,10C 164.179,18.1658 158.512,25.9991 152.5,33.5 Z"/></g>
<g><path style="opacity:0.835" fill="#362961" d="M 134.5,32.5 C 134.737,31.209 134.404,30.209 133.5,29.5C 135.055,26.0604 136.888,22.7271 139,19.5C 138.396,24.1467 136.896,28.48 134.5,32.5 Z"/></g>
<g><path style="opacity:1" fill="#f8f8fa" d="M 152.5,33.5 C 151.094,33.9731 150.427,34.9731 150.5,36.5C 148.668,38.9572 147.001,38.9572 145.5,36.5C 148.243,34.7607 150.243,32.4274 151.5,29.5C 151.5,28.8333 151.833,28.5 152.5,28.5C 153.794,27.7101 154.961,26.7101 156,25.5C 156.167,25.8333 156.333,26.1667 156.5,26.5C 154.89,28.7254 153.557,31.0587 152.5,33.5 Z"/></g>
<g><path style="opacity:1" fill="#fefffe" d="M 133.5,29.5 C 134.404,30.209 134.737,31.209 134.5,32.5C 133.833,32.8333 133.167,33.1667 132.5,33.5C 132.833,32.1667 133.167,30.8333 133.5,29.5 Z"/></g>
<g><path style="opacity:0.933" fill="#362a61" d="M 151.5,29.5 C 150.243,32.4274 148.243,34.7607 145.5,36.5C 146.757,33.5726 148.757,31.2393 151.5,29.5 Z"/></g>
<g><path style="opacity:0.969" fill="#362c61" d="M 133.5,29.5 C 133.167,30.8333 132.833,32.1667 132.5,33.5C 131.833,33.8333 131.167,34.1667 130.5,34.5C 130.75,32.326 131.75,30.6594 133.5,29.5 Z"/></g>
<g><path style="opacity:1" fill="#fefffe" d="M 132.5,33.5 C 132.5,34.5 132.5,35.5 132.5,36.5C 131.069,37.7804 130.402,39.4471 130.5,41.5C 129.069,42.7804 128.402,44.4471 128.5,46.5C 127.069,47.7804 126.402,49.4471 126.5,51.5C 124.837,53.4927 123.67,55.8261 123,58.5C 122.722,57.5842 122.222,56.9175 121.5,56.5C 121.579,55.0695 121.246,53.7362 120.5,52.5C 121.456,50.9246 122.123,49.258 122.5,47.5C 125.916,43.6767 128.582,39.3434 130.5,34.5C 131.167,34.1667 131.833,33.8333 132.5,33.5 Z"/></g>
<g><path style="opacity:0.639" fill="#352a63" d="M 134.5,32.5 C 134.5,33.1667 134.5,33.8333 134.5,34.5C 133.662,34.8417 133.328,35.5084 133.5,36.5C 133.167,36.5 132.833,36.5 132.5,36.5C 132.5,35.5 132.5,34.5 132.5,33.5C 133.167,33.1667 133.833,32.8333 134.5,32.5 Z"/></g>
<g><path style="opacity:0.09" fill="#362b63" d="M 152.5,33.5 C 152.573,35.0269 151.906,36.0269 150.5,36.5C 150.427,34.9731 151.094,33.9731 152.5,33.5 Z"/></g>
<g><path style="opacity:1" fill="#fefffe" d="M 141.5,45.5 C 142.212,47.9279 143.212,50.2612 144.5,52.5C 143.873,53.4168 143.539,54.4168 143.5,55.5C 141.086,56.9108 139.419,58.9108 138.5,61.5C 133.706,62.0969 129.373,61.4302 125.5,59.5C 126.931,58.2196 127.598,56.5529 127.5,54.5C 128.931,53.2196 129.598,51.5529 129.5,49.5C 130.931,48.2196 131.598,46.5529 131.5,44.5C 132.895,41.8582 134.395,39.1915 136,36.5C 137.357,39.8981 139.19,42.8981 141.5,45.5 Z"/></g>
<g><path style="opacity:0.563" fill="#382c61" d="M 130.5,41.5 C 130.5,42.5 130.5,43.5 130.5,44.5C 129.662,44.8417 129.328,45.5084 129.5,46.5C 129.167,46.5 128.833,46.5 128.5,46.5C 128.402,44.4471 129.069,42.7804 130.5,41.5 Z"/></g>
<g><path style="opacity:0.665" fill="#362a5f" d="M 130.5,34.5 C 128.582,39.3434 125.916,43.6767 122.5,47.5C 124.418,42.6566 127.084,38.3233 130.5,34.5 Z"/></g>
<g><path style="opacity:0.416" fill="#352963" d="M 130.5,44.5 C 130.833,44.5 131.167,44.5 131.5,44.5C 131.598,46.5529 130.931,48.2196 129.5,49.5C 129.5,48.5 129.5,47.5 129.5,46.5C 130.338,46.1583 130.672,45.4916 130.5,44.5 Z"/></g>
<g><path style="opacity:0.545" fill="#372961" d="M 128.5,46.5 C 128.5,47.5 128.5,48.5 128.5,49.5C 127.662,49.8417 127.328,50.5084 127.5,51.5C 127.167,51.5 126.833,51.5 126.5,51.5C 126.402,49.4471 127.069,47.7804 128.5,46.5 Z"/></g>
<g><path style="opacity:0.522" fill="#382e61" d="M 122.5,47.5 C 122.123,49.258 121.456,50.9246 120.5,52.5C 121.246,53.7362 121.579,55.0695 121.5,56.5C 121.167,56.5 120.833,56.5 120.5,56.5C 120.672,55.5084 120.338,54.8417 119.5,54.5C 119.166,51.509 120.166,49.1757 122.5,47.5 Z"/></g>
<g><path style="opacity:0.6" fill="#362a61" d="M 128.5,49.5 C 128.833,49.5 129.167,49.5 129.5,49.5C 129.598,51.5529 128.931,53.2196 127.5,54.5C 127.5,53.5 127.5,52.5 127.5,51.5C 128.338,51.1583 128.672,50.4916 128.5,49.5 Z"/></g>
<g><path style="opacity:1" fill="#fdfdfd" d="M 176.5,61.5 C 175.081,62.4511 173.415,62.7845 171.5,62.5C 162.009,61.67 152.342,61.17 142.5,61C 144.141,59.871 145.141,58.371 145.5,56.5C 146.531,55.645 147.697,54.9783 149,54.5C 157.811,56.0922 166.644,57.5922 175.5,59C 176.252,59.6708 176.586,60.5041 176.5,61.5 Z"/></g>
<g><path style="opacity:0.628" fill="#352a60" d="M 134.5,34.5 C 137.721,34.8961 140.388,36.2295 142.5,38.5C 143.778,38.2178 144.778,37.5511 145.5,36.5C 147.001,38.9572 148.668,38.9572 150.5,36.5C 150.141,38.371 149.141,39.871 147.5,41C 157.187,46.6988 166.853,52.3655 176.5,58C 177.791,59.2917 177.791,60.4583 176.5,61.5C 176.586,60.5041 176.252,59.6708 175.5,59C 166.644,57.5922 157.811,56.0922 149,54.5C 147.697,54.9783 146.531,55.645 145.5,56.5C 145.591,54.3023 144.925,53.9689 143.5,55.5C 143.539,54.4168 143.873,53.4168 144.5,52.5C 143.212,50.2612 142.212,47.9279 141.5,45.5C 139.19,42.8981 137.357,39.8981 136,36.5C 134.395,39.1915 132.895,41.8582 131.5,44.5C 131.737,43.209 131.404,42.209 130.5,41.5C 130.402,39.4471 131.069,37.7804 132.5,36.5C 132.833,39.1667 133.167,39.1667 133.5,36.5C 134.338,36.1583 134.672,35.4916 134.5,34.5 Z"/></g>
<g><path style="opacity:1" fill="#fefffe" d="M 142.5,38.5 C 150.933,44.2252 159.6,49.7252 168.5,55C 161.424,54.7659 154.424,53.7659 147.5,52C 145.85,48.5155 143.85,45.3488 141.5,42.5C 141.461,41.4168 141.127,40.4168 140.5,39.5C 140.957,38.7025 141.624,38.3691 142.5,38.5 Z"/></g>
<g><path style="opacity:0.18" fill="#372a61" d="M 126.5,51.5 C 126.5,52.5 126.5,53.5 126.5,54.5C 125.662,54.8417 125.328,55.5084 125.5,56.5C 124.596,57.209 124.263,58.209 124.5,59.5C 123.603,60.5981 122.77,60.5981 122,59.5C 121.536,60.0944 121.369,60.7611 121.5,61.5C 120.711,66.843 118.877,72.1764 116,77.5C 115.346,78.6956 114.846,78.6956 114.5,77.5C 115.714,69.6082 117.38,61.9416 119.5,54.5C 119.328,55.4916 119.662,56.1583 120.5,56.5C 120.833,59.1667 121.167,59.1667 121.5,56.5C 122.222,56.9175 122.722,57.5842 123,58.5C 123.67,55.8261 124.837,53.4927 126.5,51.5 Z"/></g>
<g><path style="opacity:0.584" fill="#382b60" d="M 126.5,54.5 C 126.833,54.5 127.167,54.5 127.5,54.5C 127.598,56.5529 126.931,58.2196 125.5,59.5C 125.5,58.5 125.5,57.5 125.5,56.5C 126.338,56.1583 126.672,55.4916 126.5,54.5 Z"/></g>
<g><path style="opacity:0.638" fill="#372d64" d="M 143.5,55.5 C 143.5,56.1667 143.5,56.8333 143.5,57.5C 142.833,57.5 142.5,57.8333 142.5,58.5C 141.833,58.5 141.5,58.8333 141.5,59.5C 140.833,59.5 140.5,59.8333 140.5,60.5C 139.833,60.8333 139.167,61.1667 138.5,61.5C 139.419,58.9108 141.086,56.9108 143.5,55.5 Z"/></g>
<g><path style="opacity:1" fill="#fefffe" d="M 121.5,61.5 C 120.243,64.096 119.076,66.7627 118,69.5C 117.778,65.8183 118.111,62.1516 119,58.5C 119.852,59.5707 120.685,60.5707 121.5,61.5 Z"/></g>
<g><path style="opacity:0.549" fill="#352c62" d="M 124.5,59.5 C 124.833,59.5 125.167,59.5 125.5,59.5C 129.373,61.4302 133.706,62.0969 138.5,61.5C 134.03,62.4861 129.363,62.8195 124.5,62.5C 124.5,61.5 124.5,60.5 124.5,59.5 Z"/></g>
<g><path style="opacity:0.636" fill="#352c62" d="M 145.5,56.5 C 145.141,58.371 144.141,59.871 142.5,61C 152.342,61.17 162.009,61.67 171.5,62.5C 160.779,63.1419 150.446,62.4753 140.5,60.5C 141.167,60.5 141.5,60.1667 141.5,59.5C 142.167,59.5 142.5,59.1667 142.5,58.5C 143.167,58.5 143.5,58.1667 143.5,57.5C 144.167,57.1667 144.833,56.8333 145.5,56.5 Z"/></g>
<g><path style="opacity:1" fill="#faf9fb" d="M 138.5,77.5 C 139.479,80.6248 139.813,83.9581 139.5,87.5C 138.432,88.4345 137.099,88.7678 135.5,88.5C 134.833,88.5 134.167,88.5 133.5,88.5C 127.654,87.8334 121.654,87.1668 115.5,86.5C 118.132,80.2439 120.465,73.9105 122.5,67.5C 126.854,65.652 131.52,64.9853 136.5,65.5C 136.956,69.6643 137.622,73.6643 138.5,77.5 Z"/></g>
<g><path style="opacity:0.412" fill="#362b62" d="M 138.5,77.5 C 137.622,73.6643 136.956,69.6643 136.5,65.5C 131.52,64.9853 126.854,65.652 122.5,67.5C 122.5,66.5 122.5,65.5 122.5,64.5C 127.5,64.5 132.5,64.5 137.5,64.5C 138.295,68.7853 138.628,73.1186 138.5,77.5 Z"/></g>
<g><path style="opacity:1" fill="#f3f2f6" d="M 147.5,84.5 C 148.674,85.5137 149.34,86.847 149.5,88.5C 150.063,90.91 150.563,93.2433 151,95.5C 148.333,92.8333 145.667,90.1667 143,87.5C 141.637,83.2388 141.304,78.9054 142,74.5C 143.608,78.0561 145.441,81.3894 147.5,84.5 Z"/></g>
<g><path style="opacity:0.676" fill="#342a5f" d="M 122.5,67.5 C 120.465,73.9105 118.132,80.2439 115.5,86.5C 121.654,87.1668 127.654,87.8334 133.5,88.5C 130.941,88.1984 128.607,88.5318 126.5,89.5C 122.818,89.3347 119.152,89.5014 115.5,90C 114.883,92.277 114.216,94.4437 113.5,96.5C 113.82,86.1954 116.82,76.5288 122.5,67.5 Z"/></g>
<g><path style="opacity:1" fill="#fefefe" d="M 126.5,89.5 C 126.833,89.5 127.167,89.5 127.5,89.5C 131.982,90.3255 136.649,90.8255 141.5,91C 149.167,98.6667 156.833,106.333 164.5,114C 163.29,115.039 162.29,116.206 161.5,117.5C 161.5,118.167 161.167,118.5 160.5,118.5C 156.765,120.725 153.432,123.558 150.5,127C 148.311,127.322 146.311,126.822 144.5,125.5C 144.027,124.094 143.027,123.427 141.5,123.5C 139.704,121.1 137.37,119.433 134.5,118.5C 134.027,117.094 133.027,116.427 131.5,116.5C 128.725,113.395 125.392,111.062 121.5,109.5C 119.344,107.159 116.844,105.159 114,103.5C 113.503,101.19 113.337,98.8568 113.5,96.5C 114.216,94.4437 114.883,92.277 115.5,90C 119.152,89.5014 122.818,89.3347 126.5,89.5 Z"/></g>
<g><path style="opacity:0.545" fill="#382d5f" d="M 139.5,87.5 C 140.222,88.5511 141.222,89.2178 142.5,89.5C 142.5,90.1667 142.833,90.5 143.5,90.5C 143.5,91.1667 143.833,91.5 144.5,91.5C 144.5,92.1667 144.833,92.5 145.5,92.5C 145.5,93.1667 145.833,93.5 146.5,93.5C 146.5,94.1667 146.833,94.5 147.5,94.5C 147.5,95.1667 147.833,95.5 148.5,95.5C 148.5,96.1667 148.833,96.5 149.5,96.5C 149.5,97.1667 149.833,97.5 150.5,97.5C 150.5,98.1667 150.833,98.5 151.5,98.5C 151.5,99.1667 151.833,99.5 152.5,99.5C 152.5,100.167 152.833,100.5 153.5,100.5C 153.5,101.167 153.833,101.5 154.5,101.5C 157.796,105.298 161.296,108.964 165,112.5C 165.64,115.368 164.473,117.035 161.5,117.5C 162.29,116.206 163.29,115.039 164.5,114C 156.833,106.333 149.167,98.6667 141.5,91C 136.649,90.8255 131.982,90.3255 127.5,89.5C 130.385,89.8064 133.052,89.4731 135.5,88.5C 137.099,88.7678 138.432,88.4345 139.5,87.5 Z"/></g>
<g><path style="opacity:0.816" fill="#372b61" d="M 147.5,84.5 C 145.441,81.3894 143.608,78.0561 142,74.5C 141.304,78.9054 141.637,83.2388 143,87.5C 145.667,90.1667 148.333,92.8333 151,95.5C 150.563,93.2433 150.063,90.91 149.5,88.5C 151.559,91.6106 153.392,94.9439 155,98.5C 155.74,99.7494 155.573,100.749 154.5,101.5C 153.833,101.5 153.5,101.167 153.5,100.5C 152.833,100.5 152.5,100.167 152.5,99.5C 151.833,99.5 151.5,99.1667 151.5,98.5C 150.833,98.5 150.5,98.1667 150.5,97.5C 149.833,97.5 149.5,97.1667 149.5,96.5C 148.833,96.5 148.5,96.1667 148.5,95.5C 147.833,95.5 147.5,95.1667 147.5,94.5C 146.833,94.5 146.5,94.1667 146.5,93.5C 145.833,93.5 145.5,93.1667 145.5,92.5C 144.833,92.5 144.5,92.1667 144.5,91.5C 143.833,91.5 143.5,91.1667 143.5,90.5C 142.833,90.5 142.5,90.1667 142.5,89.5C 140.548,82.3198 139.715,74.9865 140,67.5C 143.068,72.964 145.568,78.6307 147.5,84.5 Z"/></g>
<g><path style="opacity:0.667" fill="#362b61" d="M 16.5,102.5 C 15.5416,102.047 14.7083,101.381 14,100.5C 13.5045,102.473 13.3379,104.473 13.5,106.5C 12.3592,103.36 12.1925,100.027 13,96.5C 14.4213,98.4048 15.588,100.405 16.5,102.5 Z"/></g>
<g><path style="opacity:0.542" fill="#342964" d="M 113.5,96.5 C 113.337,98.8568 113.503,101.19 114,103.5C 116.844,105.159 119.344,107.159 121.5,109.5C 120.833,109.5 120.167,109.5 119.5,109.5C 119.027,108.094 118.027,107.427 116.5,107.5C 116.027,106.094 115.027,105.427 113.5,105.5C 113.047,104.542 112.381,103.708 111.5,103C 112.117,100.723 112.784,98.5563 113.5,96.5 Z"/></g>
<g><path style="opacity:1" fill="#fefffe" d="M 16.5,102.5 C 16.5323,104.619 15.5323,105.952 13.5,106.5C 13.3379,104.473 13.5045,102.473 14,100.5C 14.7083,101.381 15.5416,102.047 16.5,102.5 Z"/></g>
<g><path style="opacity:1" fill="#fefffe" d="M 35.5,102.5 C 37.1667,102.5 38.8333,102.5 40.5,102.5C 40.1417,105.267 39.475,107.933 38.5,110.5C 36.4471,110.402 34.7804,111.069 33.5,112.5C 32.0695,112.421 30.7362,112.754 29.5,113.5C 28.6143,112.675 28.281,111.675 28.5,110.5C 29.8641,108.78 30.8641,106.78 31.5,104.5C 32.9492,103.828 34.2825,103.161 35.5,102.5 Z"/></g>
<g><path style="opacity:1" fill="#fefffe" d="M 46.5,102.5 C 48.1667,104.5 49.8333,106.5 51.5,108.5C 50.8333,108.5 50.1667,108.5 49.5,108.5C 42.6034,109.074 41.6034,107.074 46.5,102.5 Z"/></g>
<g><path style="opacity:0.728" fill="#342c61" d="M 16.5,102.5 C 18.6204,103.403 18.9538,104.737 17.5,106.5C 16.5084,106.328 15.8417,106.662 15.5,107.5C 14.5084,107.672 13.8417,107.338 13.5,106.5C 15.5323,105.952 16.5323,104.619 16.5,102.5 Z"/></g>
<g><path style="opacity:1" fill="#fefffe" d="M 26.5,103.5 C 27.0967,103.735 27.4301,104.235 27.5,105C 26.5212,107.433 25.8545,109.933 25.5,112.5C 24.8501,112.804 24.1835,113.137 23.5,113.5C 21.9246,112.544 20.258,111.877 18.5,111.5C 18.0472,110.542 17.3805,109.708 16.5,109C 20.0561,107.392 23.3894,105.559 26.5,103.5 Z"/></g>
<g><path style="opacity:0.937" fill="#372a62" d="M 35.5,102.5 C 34.2825,103.161 32.9492,103.828 31.5,104.5C 30.8641,106.78 29.8641,108.78 28.5,110.5C 28.5,109.5 28.5,108.5 28.5,107.5C 29.404,106.791 29.7373,105.791 29.5,104.5C 31.1137,102.925 33.1137,102.259 35.5,102.5 Z"/></g>
<g><path style="opacity:0.381" fill="#3a3161" d="M 161.5,105.5 C 165.226,105.177 168.893,105.511 172.5,106.5C 168.197,113.289 164.53,112.956 161.5,105.5 Z"/></g>
<g><path style="opacity:0.782" fill="#342a65" d="M 29.5,104.5 C 28.596,105.209 28.2627,106.209 28.5,107.5C 27.596,108.209 27.2627,109.209 27.5,110.5C 26.6618,110.842 26.3284,111.508 26.5,112.5C 26.1667,112.5 25.8333,112.5 25.5,112.5C 25.8545,109.933 26.5212,107.433 27.5,105C 27.4301,104.235 27.0967,103.735 26.5,103.5C 28.649,100.666 29.649,100.999 29.5,104.5 Z"/></g>
<g><path style="opacity:0.512" fill="#362b62" d="M 35.5,102.5 C 37.6282,101.371 39.9615,101.204 42.5,102C 41.826,105.325 40.4926,108.159 38.5,110.5C 39.475,107.933 40.1417,105.267 40.5,102.5C 38.8333,102.5 37.1667,102.5 35.5,102.5 Z"/></g>
<g><path style="opacity:0.309" fill="#382e61" d="M 46.5,102.5 C 41.6034,107.074 42.6034,109.074 49.5,108.5C 47.3926,109.468 45.0593,109.802 42.5,109.5C 42.5622,106.247 43.3956,103.247 45,100.5C 45.7172,101.044 46.2172,101.711 46.5,102.5 Z"/></g>
<g><path style="opacity:0.741" fill="#332a5c" d="M 46.5,102.5 C 49.2254,103.713 51.5588,105.546 53.5,108C 52.9056,108.464 52.2389,108.631 51.5,108.5C 49.8333,106.5 48.1667,104.5 46.5,102.5 Z"/></g>
<g><path style="opacity:1" fill="#fcfcfd" d="M 107.5,117.5 C 107.795,119.735 107.461,121.735 106.5,123.5C 105.717,126.776 104.717,130.109 103.5,133.5C 94.1667,138.167 84.8333,142.833 75.5,147.5C 74.913,146.767 74.913,145.767 75.5,144.5C 77.9501,142.371 79.6167,139.704 80.5,136.5C 82.9501,134.371 84.6167,131.704 85.5,128.5C 88.5792,125.35 90.9125,121.683 92.5,117.5C 94.3031,115.519 95.9697,113.352 97.5,111C 100.069,110.102 102.402,108.935 104.5,107.5C 105.822,107.67 106.989,107.337 108,106.5C 107.89,110.129 107.724,113.796 107.5,117.5 Z"/></g>
<g><path style="opacity:1" fill="#f5f4f7" d="M 121.5,112.5 C 124.275,115.605 127.608,117.938 131.5,119.5C 134.275,122.605 137.608,124.938 141.5,126.5C 141.953,127.458 142.619,128.292 143.5,129C 139.975,129.179 136.641,129.679 133.5,130.5C 126.371,131.815 119.037,132.482 111.5,132.5C 109.901,132.768 108.568,132.434 107.5,131.5C 108.895,127.409 109.562,123.076 109.5,118.5C 110.639,114.699 111.472,110.699 112,106.5C 114.802,109.146 117.968,111.146 121.5,112.5 Z"/></g>
<g><path style="opacity:1" fill="#fefffe" d="M 163.5,107.5 C 165.628,106.371 167.961,106.204 170.5,107C 169.333,108.167 168.167,109.333 167,110.5C 165.961,109.29 164.794,108.29 163.5,107.5 Z"/></g>
<g><path style="opacity:0.412" fill="#342a5e" d="M 113.5,105.5 C 113.973,106.906 114.973,107.573 116.5,107.5C 116.973,108.906 117.973,109.573 119.5,109.5C 120.167,110.5 120.833,111.5 121.5,112.5C 117.968,111.146 114.802,109.146 112,106.5C 111.472,110.699 110.639,114.699 109.5,118.5C 109.5,116.167 109.5,113.833 109.5,111.5C 110.461,109.735 110.795,107.735 110.5,105.5C 111.5,105.5 112.5,105.5 113.5,105.5 Z"/></g>
<g><path style="opacity:0.755" fill="#352b5e" d="M 26.5,103.5 C 23.3894,105.559 20.0561,107.392 16.5,109C 17.3805,109.708 18.0472,110.542 18.5,111.5C 15.3489,111.386 14.3489,110.053 15.5,107.5C 16.4916,107.672 17.1583,107.338 17.5,106.5C 20.4061,105.213 23.4061,104.213 26.5,103.5 Z"/></g>
<g><path style="opacity:1" fill="#f5f4f7" d="M 93.5,109.5 C 91.7328,111.938 90.3994,114.605 89.5,117.5C 87.0499,119.629 85.3833,122.296 84.5,125.5C 82.0499,127.629 80.3833,130.296 79.5,133.5C 78.0937,133.973 77.427,134.973 77.5,136.5C 75.0499,138.629 73.3833,141.296 72.5,144.5C 71.3634,145.789 70.0301,146.789 68.5,147.5C 68.2503,145.326 67.2503,143.659 65.5,142.5C 65.2503,140.326 64.2503,138.659 62.5,137.5C 61.3674,134.443 60.3674,131.443 59.5,128.5C 58.5233,125.713 58.19,122.713 58.5,119.5C 58.5,116.833 58.5,114.167 58.5,111.5C 61.0593,111.802 63.3926,111.468 65.5,110.5C 74.75,109.528 84.0833,109.195 93.5,109.5 Z"/></g>
<g><path style="opacity:1" fill="#faf9fb" d="M 173.5,109.5 C 176.752,114.334 179.752,119.334 182.5,124.5C 183.338,124.842 183.672,125.508 183.5,126.5C 183.631,127.239 183.464,127.906 183,128.5C 178.667,124.167 174.333,119.833 170,115.5C 169.333,114.833 169.333,114.167 170,113.5C 171.376,112.295 172.542,110.962 173.5,109.5 Z"/></g>
<g><path style="opacity:0.688" fill="#352c63" d="M 65.5,110.5 C 63.3926,111.468 61.0593,111.802 58.5,111.5C 58.5,114.167 58.5,116.833 58.5,119.5C 58.1667,119.5 57.8333,119.5 57.5,119.5C 57.5,116.5 57.5,113.5 57.5,110.5C 60.1667,110.5 62.8333,110.5 65.5,110.5 Z"/></g>
<g><path style="opacity:0.871" fill="#372b62" d="M 104.5,107.5 C 102.402,108.935 100.069,110.102 97.5,111C 95.9697,113.352 94.3031,115.519 92.5,117.5C 92.8333,116.167 93.1667,114.833 93.5,113.5C 96.0731,109.71 99.7397,107.71 104.5,107.5 Z"/></g>
<g><path style="opacity:0.643" fill="#392961" d="M 27.5,110.5 C 27.8333,110.5 28.1667,110.5 28.5,110.5C 28.281,111.675 28.6143,112.675 29.5,113.5C 30.7362,112.754 32.0695,112.421 33.5,112.5C 31.5739,114.293 29.2406,115.293 26.5,115.5C 26.5,114.5 26.5,113.5 26.5,112.5C 27.3382,112.158 27.6716,111.492 27.5,110.5 Z"/></g>
<g><path style="opacity:0.412" fill="#362b63" d="M 38.5,110.5 C 37.2196,111.931 35.5529,112.598 33.5,112.5C 34.7804,111.069 36.4471,110.402 38.5,110.5 Z"/></g>
<g><path style="opacity:0.668" fill="#372c60" d="M 18.5,111.5 C 20.258,111.877 21.9246,112.544 23.5,113.5C 24.1835,113.137 24.8501,112.804 25.5,112.5C 25.719,113.675 25.3857,114.675 24.5,115.5C 22.0894,114.639 20.0894,113.306 18.5,111.5 Z"/></g>
<g><path style="opacity:0.604" fill="#352b61" d="M 109.5,111.5 C 108.833,113.5 108.167,115.5 107.5,117.5C 107.724,113.796 107.89,110.129 108,106.5C 106.989,107.337 105.822,107.67 104.5,107.5C 105.78,106.069 107.447,105.402 109.5,105.5C 109.5,107.5 109.5,109.5 109.5,111.5 Z"/></g>
<g><path style="opacity:0.78" fill="#342a5f" d="M 93.5,113.5 C 92.1667,114.833 90.8333,116.167 89.5,117.5C 90.3994,114.605 91.7328,111.938 93.5,109.5C 93.8966,108.475 94.5632,108.308 95.5,109C 94.4178,110.33 93.7512,111.83 93.5,113.5 Z"/></g>
<g><path style="opacity:0.693" fill="#342b60" d="M 121.5,112.5 C 122.167,112.5 122.833,112.5 123.5,112.5C 123.973,113.906 124.973,114.573 126.5,114.5C 126.973,115.906 127.973,116.573 129.5,116.5C 130.167,117.5 130.833,118.5 131.5,119.5C 127.608,117.938 124.275,115.605 121.5,112.5 Z"/></g>
<g><path style="opacity:0.647" fill="#352c62" d="M 121.5,109.5 C 125.392,111.062 128.725,113.395 131.5,116.5C 130.833,116.5 130.167,116.5 129.5,116.5C 129.027,115.094 128.027,114.427 126.5,114.5C 126.027,113.094 125.027,112.427 123.5,112.5C 122.833,111.5 122.167,110.5 121.5,109.5 Z"/></g>
<g><path style="opacity:0.702" fill="#372c5f" d="M 182.5,124.5 C 179.752,119.334 176.752,114.334 173.5,109.5C 173.783,108.711 174.283,108.044 175,107.5C 178.068,112.964 180.568,118.631 182.5,124.5 Z"/></g>
<g><path style="opacity:1" fill="#fefffe" d="M 56.5,119.5 C 56.6621,121.527 56.4955,123.527 56,125.5C 55.6174,124.944 55.1174,124.611 54.5,124.5C 54.1231,122.742 53.4565,121.075 52.5,119.5C 53.5312,118.3 54.3645,116.966 55,115.5C 55.21,117.058 55.71,118.391 56.5,119.5 Z"/></g>
<g><path style="opacity:0.918" fill="#362b63" d="M 131.5,116.5 C 133.027,116.427 134.027,117.094 134.5,118.5C 132.973,118.573 131.973,117.906 131.5,116.5 Z"/></g>
<g><path style="opacity:0.871" fill="#332962" d="M 56.5,119.5 C 55.71,118.391 55.21,117.058 55,115.5C 54.3645,116.966 53.5312,118.3 52.5,119.5C 53.4565,121.075 54.1231,122.742 54.5,124.5C 51.9953,122.814 51.162,120.481 52,117.5C 55.9476,110.558 57.4476,111.225 56.5,119.5 Z"/></g>
<g><path style="opacity:0.551" fill="#362c62" d="M 134.5,118.5 C 137.37,119.433 139.704,121.1 141.5,123.5C 140.833,123.5 140.167,123.5 139.5,123.5C 139.027,122.094 138.027,121.427 136.5,121.5C 135.833,120.5 135.167,119.5 134.5,118.5 Z"/></g>
<g><path style="opacity:0.424" fill="#382b61" d="M 89.5,117.5 C 89.1667,118.833 88.8333,120.167 88.5,121.5C 87.0937,121.973 86.427,122.973 86.5,124.5C 85.8333,124.833 85.1667,125.167 84.5,125.5C 85.3833,122.296 87.0499,119.629 89.5,117.5 Z"/></g>
<g><path style="opacity:0.512" fill="#382a61" d="M 109.5,118.5 C 109.562,123.076 108.895,127.409 107.5,131.5C 107.438,126.924 108.105,122.591 109.5,118.5 Z"/></g>
<g><path style="opacity:0.618" fill="#342a61" d="M 131.5,119.5 C 133.167,120.167 134.833,120.833 136.5,121.5C 136.973,122.906 137.973,123.573 139.5,123.5C 140.167,124.5 140.833,125.5 141.5,126.5C 137.608,124.938 134.275,122.605 131.5,119.5 Z"/></g>
<g><path style="opacity:0.02" fill="#372d64" d="M 173.5,109.5 C 172.542,110.962 171.376,112.295 170,113.5C 169.333,114.167 169.333,114.833 170,115.5C 174.333,119.833 178.667,124.167 183,128.5C 183.464,127.906 183.631,127.239 183.5,126.5C 185.462,128.425 186.295,130.758 186,133.5C 180,127.5 174,121.5 168,115.5C 168.519,112.474 170.352,110.474 173.5,109.5 Z"/></g>
<g><path style="opacity:0.623" fill="#362c61" d="M 56.5,119.5 C 56.8333,119.5 57.1667,119.5 57.5,119.5C 57.665,122.85 57.4983,126.183 57,129.5C 55.6283,128.09 54.795,126.423 54.5,124.5C 55.1174,124.611 55.6174,124.944 56,125.5C 56.4955,123.527 56.6621,121.527 56.5,119.5 Z"/></g>
<g><path style="opacity:0.733" fill="#33295e" d="M 92.5,117.5 C 90.9125,121.683 88.5792,125.35 85.5,128.5C 85.8333,127.167 86.1667,125.833 86.5,124.5C 87.9063,124.027 88.573,123.027 88.5,121.5C 89.8333,120.167 91.1667,118.833 92.5,117.5 Z"/></g>
<g><path style="opacity:0.686" fill="#332c62" d="M 141.5,123.5 C 143.027,123.427 144.027,124.094 144.5,125.5C 142.973,125.573 141.973,124.906 141.5,123.5 Z"/></g>
<g><path style="opacity:0.157" fill="#342a5e" d="M 84.5,125.5 C 84.1667,126.833 83.8333,128.167 83.5,129.5C 82.0937,129.973 81.427,130.973 81.5,132.5C 80.8333,132.833 80.1667,133.167 79.5,133.5C 80.3833,130.296 82.0499,127.629 84.5,125.5 Z"/></g>
<g><path style="opacity:0.937" fill="#34285c" d="M 141.5,126.5 C 143.167,127.167 144.833,127.833 146.5,128.5C 146.389,129.117 146.056,129.617 145.5,130C 141.514,130.499 137.514,130.666 133.5,130.5C 136.641,129.679 139.975,129.179 143.5,129C 142.619,128.292 141.953,127.458 141.5,126.5 Z"/></g>
<g><path style="opacity:1" fill="#fbfafb" d="M 153.5,140.5 C 154.461,142.265 154.795,144.265 154.5,146.5C 154.319,150.635 154.152,154.968 154,159.5C 153.617,158.944 153.117,158.611 152.5,158.5C 152.262,156.596 151.262,155.262 149.5,154.5C 149.262,152.596 148.262,151.262 146.5,150.5C 146.262,148.596 145.262,147.262 143.5,146.5C 143.262,144.596 142.262,143.262 140.5,142.5C 140.262,140.596 139.262,139.262 137.5,138.5C 137.262,136.596 136.262,135.262 134.5,134.5C 135.833,133.833 137.167,133.167 138.5,132.5C 142.182,132.665 145.848,132.499 149.5,132C 150,131.5 150.5,131 151,130.5C 152.084,133.834 152.918,137.168 153.5,140.5 Z"/></g>
<g><path style="opacity:0.98" fill="#382a61" d="M 85.5,128.5 C 84.6167,131.704 82.9501,134.371 80.5,136.5C 80.8333,135.167 81.1667,133.833 81.5,132.5C 82.9063,132.027 83.573,131.027 83.5,129.5C 84.1667,129.167 84.8333,128.833 85.5,128.5 Z"/></g>
<g><path style="opacity:0.62" fill="#352a60" d="M 160.5,118.5 C 157.704,121.797 154.704,124.964 151.5,128C 153.312,131.922 153.979,136.089 153.5,140.5C 152.918,137.168 152.084,133.834 151,130.5C 150.5,131 150,131.5 149.5,132C 145.848,132.499 142.182,132.665 138.5,132.5C 141.641,131.679 144.975,131.179 148.5,131C 149.412,129.375 148.745,128.541 146.5,128.5C 145.833,127.5 145.167,126.5 144.5,125.5C 146.311,126.822 148.311,127.322 150.5,127C 153.432,123.558 156.765,120.725 160.5,118.5 Z"/></g>
<g><path style="opacity:0.318" fill="#362b62" d="M 59.5,128.5 C 60.3674,131.443 61.3674,134.443 62.5,137.5C 59.925,135.155 58.925,132.155 59.5,128.5 Z"/></g>
<g><path style="opacity:0.175" fill="#352e64" d="M 107.5,131.5 C 108.568,132.434 109.901,132.768 111.5,132.5C 109.965,133.788 108.299,133.788 106.5,132.5C 106.624,131.893 106.957,131.56 107.5,131.5 Z"/></g>
<g><path style="opacity:0.812" fill="#32295a" d="M 138.5,132.5 C 137.167,133.167 135.833,133.833 134.5,134.5C 133.711,134.217 133.044,133.717 132.5,133C 134.473,132.505 136.473,132.338 138.5,132.5 Z"/></g>
<g><path style="opacity:0.071" fill="#362b62" d="M 79.5,133.5 C 79.573,135.027 78.9063,136.027 77.5,136.5C 77.427,134.973 78.0937,133.973 79.5,133.5 Z"/></g>
<g><path style="opacity:0.137" fill="#3a2b65" d="M 134.5,134.5 C 136.262,135.262 137.262,136.596 137.5,138.5C 135.738,137.738 134.738,136.404 134.5,134.5 Z"/></g>
<g><path style="opacity:0.569" fill="#372b63" d="M 80.5,136.5 C 79.6167,139.704 77.9501,142.371 75.5,144.5C 75.8333,143.167 76.1667,141.833 76.5,140.5C 77.8333,139.167 79.1667,137.833 80.5,136.5 Z"/></g>
<g><path style="opacity:0.22" fill="#352a62" d="M 77.5,136.5 C 77.1667,137.833 76.8333,139.167 76.5,140.5C 75.1667,141.833 73.8333,143.167 72.5,144.5C 73.3833,141.296 75.0499,138.629 77.5,136.5 Z"/></g>
<g><path style="opacity:0.137" fill="#3a2b65" d="M 137.5,138.5 C 139.262,139.262 140.262,140.596 140.5,142.5C 138.738,141.738 137.738,140.404 137.5,138.5 Z"/></g>
<g><path style="opacity:0.635" fill="#372b62" d="M 106.5,123.5 C 106.76,127.348 106.094,131.015 104.5,134.5C 93.8333,139.833 83.1667,145.167 72.5,150.5C 71.7025,150.043 71.3691,149.376 71.5,148.5C 72.8333,147.167 74.1667,145.833 75.5,144.5C 74.913,145.767 74.913,146.767 75.5,147.5C 84.8333,142.833 94.1667,138.167 103.5,133.5C 104.717,130.109 105.717,126.776 106.5,123.5 Z"/></g>
<g><path style="opacity:1" fill="#fefffe" d="M 64.5,144.5 C 64.7497,146.674 65.7497,148.341 67.5,149.5C 67.4142,150.496 67.7476,151.329 68.5,152C 66.8767,154.08 65.3767,156.246 64,158.5C 62.7821,153.545 62.4488,148.545 63,143.5C 63.3826,144.056 63.8826,144.389 64.5,144.5 Z"/></g>
<g><path style="opacity:0.137" fill="#3a2b65" d="M 140.5,142.5 C 142.262,143.262 143.262,144.596 143.5,146.5C 141.738,145.738 140.738,144.404 140.5,142.5 Z"/></g>
<g><path style="opacity:0.039" fill="#362e66" d="M 65.5,142.5 C 67.2503,143.659 68.2503,145.326 68.5,147.5C 67.6618,147.842 67.3284,148.508 67.5,149.5C 65.7497,148.341 64.7497,146.674 64.5,144.5C 65.3382,144.158 65.6716,143.492 65.5,142.5 Z"/></g>
<g><path style="opacity:0.759" fill="#382a61" d="M 72.5,144.5 C 72.1667,145.833 71.8333,147.167 71.5,148.5C 70.609,149.11 69.609,149.443 68.5,149.5C 68.5,148.833 68.5,148.167 68.5,147.5C 70.0301,146.789 71.3634,145.789 72.5,144.5 Z"/></g>
<g><path style="opacity:0.137" fill="#3a2b65" d="M 143.5,146.5 C 145.262,147.262 146.262,148.596 146.5,150.5C 144.738,149.738 143.738,148.404 143.5,146.5 Z"/></g>
<g><path style="opacity:0.137" fill="#3a2b65" d="M 146.5,150.5 C 148.262,151.262 149.262,152.596 149.5,154.5C 147.738,153.738 146.738,152.404 146.5,150.5 Z"/></g>
<g><path style="opacity:1" fill="#fdfdfd" d="M 74.5,163.5 C 74.7497,165.674 75.7497,167.341 77.5,168.5C 77.7497,170.674 78.7497,172.341 80.5,173.5C 80.7497,175.674 81.7497,177.341 83.5,178.5C 84.0283,179.847 84.195,181.181 84,182.5C 82.2228,180.21 80.0562,178.543 77.5,177.5C 76.8333,177.5 76.5,177.167 76.5,176.5C 72.4939,171.827 68.1606,167.494 63.5,163.5C 65.1381,160.696 66.9715,158.029 69,155.5C 70.6091,158.407 72.4424,161.073 74.5,163.5 Z"/></g>
<g><path style="opacity:0.826" fill="#352a5f" d="M 164.5,167.5 C 162.441,164.389 160.608,161.056 159,157.5C 158.503,159.81 158.337,162.143 158.5,164.5C 157.694,160.998 157.027,157.331 156.5,153.5C 156.833,152.833 157.167,152.167 157.5,151.5C 160.397,156.623 162.73,161.956 164.5,167.5 Z"/></g>
<g><path style="opacity:0.137" fill="#3a2b65" d="M 149.5,154.5 C 151.262,155.262 152.262,156.596 152.5,158.5C 150.738,157.738 149.738,156.404 149.5,154.5 Z"/></g>
<g><path style="opacity:0.814" fill="#362b61" d="M 154.5,146.5 C 155.48,152.147 155.98,157.814 156,163.5C 154.198,162.211 153.031,160.544 152.5,158.5C 153.117,158.611 153.617,158.944 154,159.5C 154.152,154.968 154.319,150.635 154.5,146.5 Z"/></g>
<g><path style="opacity:1" fill="#fefffe" d="M 164.5,167.5 C 164.649,168.552 164.483,169.552 164,170.5C 162.383,168.237 160.55,166.237 158.5,164.5C 158.337,162.143 158.503,159.81 159,157.5C 160.608,161.056 162.441,164.389 164.5,167.5 Z"/></g>
<g><path style="opacity:0.31" fill="#352b60" d="M 62.5,137.5 C 64.2503,138.659 65.2503,140.326 65.5,142.5C 64.6618,142.842 64.3284,143.508 64.5,144.5C 63.8826,144.389 63.3826,144.056 63,143.5C 62.4488,148.545 62.7821,153.545 64,158.5C 65.3767,156.246 66.8767,154.08 68.5,152C 67.7476,151.329 67.4142,150.496 67.5,149.5C 67.8333,149.5 68.1667,149.5 68.5,149.5C 70.0382,154.369 72.0382,159.036 74.5,163.5C 72.4424,161.073 70.6091,158.407 69,155.5C 66.9715,158.029 65.1381,160.696 63.5,163.5C 68.1606,167.494 72.4939,171.827 76.5,176.5C 73.9438,175.457 71.7772,173.79 70,171.5C 68.5627,177.521 67.0627,183.521 65.5,189.5C 64.5159,186.572 64.1826,183.572 64.5,180.5C 63.0393,167.494 61.7059,154.327 60.5,141C 60.8735,139.45 61.5401,138.283 62.5,137.5 Z"/></g>
<g><path style="opacity:1" fill="#fefffe" d="M 64.5,180.5 C 64.393,175.79 64.2263,171.123 64,166.5C 65.892,168.054 67.392,169.888 68.5,172C 67.5394,175.803 66.7061,179.636 66,183.5C 65.7679,182.263 65.2679,181.263 64.5,180.5 Z"/></g>
<g><path style="opacity:0.976" fill="#352c62" d="M 74.5,163.5 C 76.2503,164.659 77.2503,166.326 77.5,168.5C 75.7497,167.341 74.7497,165.674 74.5,163.5 Z"/></g>
<g><path style="opacity:0.733" fill="#3b2e64" d="M 158.5,164.5 C 160.55,166.237 162.383,168.237 164,170.5C 164.483,169.552 164.649,168.552 164.5,167.5C 167.449,171.394 169.282,175.727 170,180.5C 165.903,175.284 162.069,169.951 158.5,164.5 Z"/></g>
<g><path style="opacity:0.965" fill="#352c62" d="M 77.5,168.5 C 79.2503,169.659 80.2503,171.326 80.5,173.5C 78.7497,172.341 77.7497,170.674 77.5,168.5 Z"/></g>
<g><path style="opacity:0.475" fill="#392b64" d="M 80.5,173.5 C 82.2503,174.659 83.2503,176.326 83.5,178.5C 81.7497,177.341 80.7497,175.674 80.5,173.5 Z"/></g>
<g><path style="opacity:0.86" fill="#372c62" d="M 77.5,177.5 C 80.0562,178.543 82.2228,180.21 84,182.5C 84.195,181.181 84.0283,179.847 83.5,178.5C 85.7247,181.262 87.7247,184.262 89.5,187.5C 89.1667,187.833 88.8333,188.167 88.5,188.5C 84.479,185.146 80.8123,181.479 77.5,177.5 Z"/></g>
</svg>
